<svg id="SvgjsSvg1016" width="288" height="288" xmlns="http://www.w3.org/2000/svg" version="1.1" xmlns:xlink="http://www.w3.org/1999/xlink" xmlns:svgjs="http://svgjs.com/svgjs"><defs id="SvgjsDefs1017"></defs><g id="SvgjsG1018" transform="matrix(1,0,0,1,0,0)"><svg xmlns="http://www.w3.org/2000/svg" viewBox="0 0 24 24" width="288" height="288"><path d="M18.42,9.21a7,7,0,0,0-13.36,1.9A4,4,0,0,0,6,19H17a5,5,0,0,0,1.42-9.79ZM17,17H6a2,2,0,0,1,0-4,1,1,0,0,0,1-1,5,5,0,0,1,9.73-1.61,1,1,0,0,0,.78.66A3,3,0,0,1,17,17Z" fill="#4c4c4c" class="color000 svgShape"></path></svg></g></svg>