<svg id="SvgjsSvg1001" width="288" height="288" xmlns="http://www.w3.org/2000/svg" version="1.1" xmlns:xlink="http://www.w3.org/1999/xlink" xmlns:svgjs="http://svgjs.com/svgjs"><defs id="SvgjsDefs1002"></defs><g id="SvgjsG1008" transform="matrix(1,0,0,1,0,0)"><svg xmlns="http://www.w3.org/2000/svg" viewBox="0 0 64 64" width="288" height="288"><path d="M54.61,13.61,46.73,4.16A6,6,0,0,0,42.13,2H14A6,6,0,0,0,8,8V56a6,6,0,0,0,6,6H50a6,6,0,0,0,6-6V17.45A6,6,0,0,0,54.61,13.61ZM52,56a2,2,0,0,1-2,2H14a2,2,0,0,1-2-2V8a2,2,0,0,1,2-2H42.13a2,2,0,0,1,1.53.72l7.88,9.45A2,2,0,0,1,52,17.45ZM16,16.92V11.87a2,2,0,1,1,4,0v5.05a2,2,0,0,1-4,0Zm8,0V11.87a2,2,0,1,1,4,0v5.05a2,2,0,0,1-4,0ZM32,17V12a2,2,0,0,1,4,0V17a2,2,0,0,1-4,0Zm8-.08V11.87a2,2,0,1,1,4,0v5.05a2,2,0,0,1-4,0ZM48,36v2a2,2,0,0,1-4,0V36a2,2,0,0,0-2-2H22a2,2,0,0,0-2,2V48a2,2,0,0,0,2,2H42a2,2,0,0,0,2-2V44a2,2,0,0,1,4,0v4a6,6,0,0,1-6,6H22a6,6,0,0,1-6-6V36a6,6,0,0,1,6-6H42A6,6,0,0,1,48,36Z" data-name="Layer 13" fill="#4c4c4c" class="color000 svgShape"></path></svg></g></svg>