<svg id="SvgjsSvg1078" width="288" height="288" xmlns="http://www.w3.org/2000/svg" version="1.1" xmlns:xlink="http://www.w3.org/1999/xlink" xmlns:svgjs="http://svgjs.com/svgjs"><defs id="SvgjsDefs1079"></defs><g id="SvgjsG1080" transform="matrix(1,0,0,1,0,0)"><svg xmlns="http://www.w3.org/2000/svg" viewBox="0 0 24 24" width="288" height="288"><g data-name="Layer 2" fill="#4c4c4c" class="color000 svgShape"><g data-name="plus-circle" fill="#4c4c4c" class="color000 svgShape"><rect width="24" height="24" opacity="0" fill="#4c4c4c" class="color000 svgShape"></rect><path d="M12 2a10 10 0 1 0 10 10A10 10 0 0 0 12 2zm0 18a8 8 0 1 1 8-8 8 8 0 0 1-8 8z" fill="#4c4c4c" class="color000 svgShape"></path><path d="M15 11h-2V9a1 1 0 0 0-2 0v2H9a1 1 0 0 0 0 2h2v2a1 1 0 0 0 2 0v-2h2a1 1 0 0 0 0-2z" fill="#4c4c4c" class="color000 svgShape"></path></g></g></svg></g></svg>