<svg id="SvgjsSvg1073" width="288" height="288" xmlns="http://www.w3.org/2000/svg" version="1.1" xmlns:xlink="http://www.w3.org/1999/xlink" xmlns:svgjs="http://svgjs.com/svgjs"><defs id="SvgjsDefs1074"></defs><g id="SvgjsG1075" transform="matrix(1,0,0,1,0,0)"><svg xmlns="http://www.w3.org/2000/svg" viewBox="0 0 24 24" width="288" height="288"><path d="M22,9.67A1,1,0,0,0,21.14,9l-5.69-.83L12.9,3a1,1,0,0,0-1.8,0L8.55,8.16,2.86,9a1,1,0,0,0-.81.68,1,1,0,0,0,.25,1l4.13,4-1,5.68a1,1,0,0,0,.4,1,1,1,0,0,0,1.05.07L12,18.76l5.1,2.68a.93.93,0,0,0,.46.12,1,1,0,0,0,.59-.19,1,1,0,0,0,.4-1l-1-5.68,4.13-4A1,1,0,0,0,22,9.67Zm-6.15,4a1,1,0,0,0-.29.89l.72,4.19-3.76-2a1,1,0,0,0-.94,0l-3.76,2,.72-4.19a1,1,0,0,0-.29-.89l-3-3,4.21-.61a1,1,0,0,0,.76-.55L12,5.7l1.88,3.82a1,1,0,0,0,.76.55l4.21.61Z" fill="#4c4c4c" class="color000 svgShape"></path></svg></g></svg>