<?xml version="1.0"?>
<svg xmlns="http://www.w3.org/2000/svg" xmlns:xlink="http://www.w3.org/1999/xlink" xmlns:svgjs="http://svgjs.com/svgjs" version="1.1" width="512" height="512" x="0" y="0" viewBox="0 0 481.487 481.487" style="enable-background:new 0 0 512 512" xml:space="preserve" class=""><g transform="matrix(-1,0,0,1,481.4872817993164,0)">
<path xmlns="http://www.w3.org/2000/svg" style="" d="M340.416,159.798l0.352,0.232L340.416,159.798z" fill="#ffaf46" data-original="#ffaf46" class=""/>
<path xmlns="http://www.w3.org/2000/svg" style="" d="M426.464,100.318c-12.497,12.497-32.759,12.497-45.256,0s-12.497-32.759,0-45.256l39.6-39.6  C393.792,1.958,361.168,7.245,339.8,28.59l-9.504,9.504c-15.02,14.99-23.447,35.348-23.416,56.568c0,3.768,0.284,7.531,0.848,11.256  c3.028,21.666,14.831,41.134,32.64,53.84l0.048,0.04l0.352,0.232c10.361,7.292,22.309,12.011,34.856,13.768  c24.901,3.613,50.045-4.755,67.816-22.568l9.496-9.512c21.336-21.369,26.623-53.986,13.128-81L426.464,100.318z" fill="#bbbbbb" data-original="#e7e7e8" class=""/>
<path xmlns="http://www.w3.org/2000/svg" style="" d="M340.768,160.03l-0.352-0.232l-0.048-0.04c-3.593-2.562-6.972-5.411-10.104-8.52  c-12.27-12.252-20.193-28.183-22.56-45.36l-5.2,10.48c-11.548,23.094-26.758,44.167-45.04,62.4l-78.72,78.72  c-18.215,18.282-39.292,33.469-62.4,44.96l-10.4,5.28c35.192,5.045,62.832,32.708,67.848,67.904l5.272-10.464  c11.519-23.091,26.703-44.164,44.96-62.4l39.36-39.36l39.36-39.36c18.251-18.24,39.321-33.421,62.4-44.96l10.472-5.28  C363.07,172.048,351.122,167.328,340.768,160.03L340.768,160.03z" fill="#bebec2" data-original="#bebec2" class=""/>
<g xmlns="http://www.w3.org/2000/svg">
	<path style="" d="M340.368,159.758l0.048,0.04L340.368,159.758z" fill="#ffaf46" data-original="#ffaf46" class=""/>
	<path style="" d="M340.768,160.03c10.352,7.297,22.296,12.017,34.84,13.768   C363.067,172.038,351.124,167.319,340.768,160.03z" fill="#ffaf46" data-original="#ffaf46" class=""/>
</g>
<path xmlns="http://www.w3.org/2000/svg" style="" d="M164.904,348.75c-11.984-22.309-33.906-37.551-58.992-41.016c-3.729-0.561-7.494-0.844-11.264-0.848  c-21.221-0.029-41.579,8.401-56.568,23.424l-9.504,9.504c-21.341,21.367-26.624,53.989-13.12,81l39.6-39.592  c12.355-12.637,32.615-12.866,45.252-0.511c12.637,12.355,12.866,32.615,0.511,45.252c-0.167,0.171-0.336,0.34-0.507,0.507  l-39.6,39.6c27.022,13.485,59.64,8.189,81.008-13.152l9.504-9.472c17.812-17.775,26.18-42.921,22.568-67.824  C172.447,366.208,169.437,357.109,164.904,348.75z" fill="#bbbbbb" data-original="#e7e7e8" class=""/>
<path xmlns="http://www.w3.org/2000/svg" style="" d="M164.904,348.75c4.532,8.365,7.539,17.469,8.88,26.888  C172.453,366.217,169.445,357.11,164.904,348.75z" fill="#ffaf46" data-original="#ffaf46" class=""/>
<path xmlns="http://www.w3.org/2000/svg" style="" d="M473.224,57.158c-1.974-3.953-6.779-5.557-10.732-3.582c-0.764,0.382-1.463,0.884-2.068,1.486  l-39.6,39.6c-9.373,9.373-24.571,9.373-33.944,0s-9.373-24.571,0-33.944l39.6-39.592c3.121-3.127,3.116-8.193-0.012-11.314  c-0.603-0.602-1.299-1.104-2.06-1.486c-30.08-15.117-66.465-9.227-90.24,14.608l-9.528,9.504  c-16.555,16.467-25.834,38.874-25.768,62.224c0.022,3.255,0.235,6.506,0.64,9.736l-4.16,8.376  c-11.166,22.326-25.87,42.699-43.544,60.328l-78.736,78.728c-17.612,17.689-37.998,32.379-60.352,43.488l-8.304,4.216  c-3.241-0.398-6.503-0.609-9.768-0.632c-23.347-0.067-45.75,9.209-62.216,25.76l-9.512,9.496  c-23.832,23.778-29.728,60.16-14.624,90.248c1.983,3.948,6.791,5.541,10.74,3.558c0.762-0.383,1.457-0.884,2.06-1.486l39.6-39.6  c9.297-9.447,24.493-9.569,33.94-0.272s9.569,24.493,0.272,33.94c-0.091,0.093-0.183,0.185-0.276,0.276l-39.576,39.592  c-3.118,3.13-3.108,8.196,0.022,11.314c0.605,0.602,1.302,1.104,2.066,1.486c30.091,15.041,66.428,9.155,90.232-14.616l9.496-9.496  c18.958-18.832,28.203-45.335,25.072-71.872l4.272-8.504c11.136-22.319,25.814-42.687,43.464-60.312l78.72-78.696  c17.645-17.643,38.021-32.322,60.344-43.472l8.384-4.216c3.359,0.394,6.738,0.602,10.12,0.624  c23.225,0.021,45.494-9.245,61.848-25.736l9.496-9.504C482.387,123.613,488.281,87.256,473.224,57.158L473.224,57.158z   M145.56,437.79l-9.496,9.528C120.078,463.264,96.715,469.312,75,463.126l30.96-30.96c15.554-15.687,15.447-41.014-0.24-56.568  c-15.59-15.458-40.725-15.462-56.32-0.008l-30.976,30.928c-6.24-21.715-0.185-45.105,15.808-61.064l9.512-9.496  c28.151-28.029,73.665-28.029,101.816,0c7.996,7.99,13.97,17.773,17.424,28.536c1.313,3.994,2.274,8.095,2.872,12.256  C169.182,399.166,161.647,421.828,145.56,437.79L145.56,437.79z M297.088,218.382l-78.72,78.72  c-16.721,16.695-30.957,35.705-42.272,56.448c-0.112-0.28-0.264-0.544-0.384-0.8c-0.872-2.088-1.824-4.152-2.864-6.168  c-0.456-0.896-0.96-1.768-1.456-2.648c-0.8-1.408-1.6-2.8-2.472-4.168c-0.624-0.976-1.256-1.936-1.912-2.888  c-0.864-1.248-1.784-2.472-2.72-3.68c-0.712-0.928-1.408-1.864-2.16-2.76c-1.168-1.392-2.4-2.736-3.68-4.064  c-0.536-0.568-1.008-1.176-1.6-1.728s-1.184-1.048-1.768-1.6c-1.312-1.24-2.624-2.472-4-3.624c-0.928-0.8-1.896-1.504-2.856-2.248  c-1.16-0.888-2.328-1.768-3.52-2.6c-1.016-0.704-2.04-1.376-3.08-2.032c-1.248-0.8-2.512-1.536-3.792-2.256  c-1.024-0.576-2.032-1.16-3.072-1.688c-1.6-0.8-3.16-1.52-4.8-2.224c-0.688-0.296-1.344-0.672-2.048-0.952  c20.751-11.288,39.757-25.524,56.424-42.264l78.712-78.704c16.727-16.678,30.971-35.672,42.296-56.4  c0.352,0.864,0.8,1.68,1.184,2.536c0.616,1.4,1.24,2.792,1.936,4.152c0.576,1.144,1.216,2.256,1.848,3.368s1.344,2.32,2.056,3.456  s1.448,2.248,2.208,3.344s1.536,2.112,2.336,3.152s1.6,2.16,2.504,3.2s1.864,2.072,2.808,3.096c0.8,0.856,1.512,1.752,2.336,2.576  c0.648,0.648,1.352,1.2,2.016,1.824c1.28,1.2,2.56,2.4,3.896,3.504c0.736,0.616,1.504,1.184,2.256,1.768  c1.44,1.128,2.904,2.216,4.4,3.248c0.72,0.496,1.456,0.976,2.192,1.448c1.669,1.067,3.373,2.077,5.112,3.032  c0.608,0.336,1.208,0.68,1.816,1c2.4,1.232,4.8,2.4,7.248,3.376C332.775,187.455,313.78,201.681,297.088,218.382L297.088,218.382z   M464.672,102.054c-2.04,12.897-8.131,24.811-17.392,34.016l-9.496,9.496c-15.954,16.101-38.62,23.643-61.04,20.312  c-11.478-1.591-22.396-5.948-31.816-12.696l-0.184-0.128c-2.908-2.119-5.657-4.447-8.224-6.968c-0.184-0.184-0.376-0.336-0.56-0.52  c-11.066-11.018-18.203-25.368-20.312-40.84c-0.516-3.33-0.783-6.694-0.8-10.064c-0.055-19.105,7.536-37.438,21.08-50.912  l9.536-9.512c15.95-16.004,39.345-22.058,61.056-15.8l-30.968,30.968c-15.689,15.552-15.801,40.879-0.248,56.568  s40.879,15.801,56.568,0.248c0.083-0.082,0.166-0.165,0.248-0.248l30.968-30.96C465.613,83.798,466.154,93.034,464.672,102.054z" fill="#383838" data-original="#231f20" class=""/>
<g xmlns="http://www.w3.org/2000/svg">
</g>
<g xmlns="http://www.w3.org/2000/svg">
</g>
<g xmlns="http://www.w3.org/2000/svg">
</g>
<g xmlns="http://www.w3.org/2000/svg">
</g>
<g xmlns="http://www.w3.org/2000/svg">
</g>
<g xmlns="http://www.w3.org/2000/svg">
</g>
<g xmlns="http://www.w3.org/2000/svg">
</g>
<g xmlns="http://www.w3.org/2000/svg">
</g>
<g xmlns="http://www.w3.org/2000/svg">
</g>
<g xmlns="http://www.w3.org/2000/svg">
</g>
<g xmlns="http://www.w3.org/2000/svg">
</g>
<g xmlns="http://www.w3.org/2000/svg">
</g>
<g xmlns="http://www.w3.org/2000/svg">
</g>
<g xmlns="http://www.w3.org/2000/svg">
</g>
<g xmlns="http://www.w3.org/2000/svg">
</g>
</g></svg>
